<?xml version="1.0" encoding="UTF-8" standalone="no"?>
<!DOCTYPE svg PUBLIC "-//W3C//DTD SVG 1.1//EN"
 "http://www.w3.org/Graphics/SVG/1.1/DTD/svg11.dtd">
<!-- Generated by graphviz version 2.40.1 (20161225.0304)
 -->
<!-- Title: dependencies Pages: 1 -->
<svg width="849pt" height="211pt"
 viewBox="0.00 0.00 849.00 211.00" xmlns="http://www.w3.org/2000/svg" xmlns:xlink="http://www.w3.org/1999/xlink">
<g id="graph0" class="graph" transform="scale(1 1) rotate(0) translate(4 207)">
<title>dependencies</title>
<polygon fill="#ffffff" stroke="transparent" points="-4,4 -4,-207 845,-207 845,4 -4,4"/>
<text text-anchor="start" x="399.5091" y="-42.4" font-family="sans-serif" font-weight="bold" font-size="14.00" fill="#000000">Legend</text>
<polygon fill="#ffffb3" stroke="transparent" points="186.5,-10 186.5,-30 206.5,-30 206.5,-10 186.5,-10"/>
<text text-anchor="start" x="210.129" y="-15.4" font-family="sans-serif" font-size="14.00" fill="#000000"> &#160;Declarations</text>
<polygon fill="#8dd3c7" stroke="transparent" points="299.5,-10 299.5,-30 319.5,-30 319.5,-10 299.5,-10"/>
<text text-anchor="start" x="323.2251" y="-15.4" font-family="sans-serif" font-size="14.00" fill="#000000"> &#160;Module</text>
<polygon fill="#80b1d3" stroke="transparent" points="385.5,-10 385.5,-30 405.5,-30 405.5,-10 385.5,-10"/>
<text text-anchor="start" x="409.2812" y="-15.4" font-family="sans-serif" font-size="14.00" fill="#000000"> &#160;Bootstrap</text>
<polygon fill="#fdb462" stroke="transparent" points="482.5,-10 482.5,-30 502.5,-30 502.5,-10 482.5,-10"/>
<text text-anchor="start" x="506.1732" y="-15.4" font-family="sans-serif" font-size="14.00" fill="#000000"> &#160;Providers</text>
<polygon fill="#fb8072" stroke="transparent" points="578.5,-10 578.5,-30 598.5,-30 598.5,-10 578.5,-10"/>
<text text-anchor="start" x="602.2258" y="-15.4" font-family="sans-serif" font-size="14.00" fill="#000000"> &#160;Exports</text>
<g id="clust1" class="cluster">
<title>cluster_ItemModuleModule</title>
<polygon fill="none" stroke="#000000" stroke-dasharray="1,5" points="8,-70 8,-195 833,-195 833,-70 8,-70"/>
</g>
<g id="clust2" class="cluster">
<title>cluster_ItemModuleModule_declarations</title>
<polygon fill="none" stroke="#000000" points="200,-78 200,-130 825,-130 825,-78 200,-78"/>
</g>
<g id="clust11" class="cluster">
<title>cluster_ItemModuleModule_providers</title>
<polygon fill="none" stroke="#000000" points="16,-78 16,-130 192,-130 192,-78 16,-78"/>
</g>
<!-- ListItemComponent -->
<g id="node1" class="node">
<title>ListItemComponent</title>
<polygon fill="#ffffb3" stroke="#000000" points="817.2674,-122 688.7326,-122 688.7326,-86 817.2674,-86 817.2674,-122"/>
<text text-anchor="middle" x="753" y="-99.8" font-family="Times,serif" font-size="14.00" fill="#000000">ListItemComponent</text>
</g>
<!-- ItemModuleModule -->
<g id="node6" class="node">
<title>ItemModuleModule</title>
<polygon fill="#8dd3c7" stroke="#000000" points="519.2562,-187 516.2562,-191 495.2562,-191 492.2562,-187 390.7438,-187 390.7438,-151 519.2562,-151 519.2562,-187"/>
<text text-anchor="middle" x="455" y="-164.8" font-family="Times,serif" font-size="14.00" fill="#000000">ItemModuleModule</text>
</g>
<!-- ListItemComponent&#45;&gt;ItemModuleModule -->
<g id="edge1" class="edge">
<title>ListItemComponent&#45;&gt;ItemModuleModule</title>
<path fill="none" stroke="#000000" d="M753,-122.2843C753,-143.3211 753,-175 753,-175 753,-175 529.2947,-175 529.2947,-175"/>
<polygon fill="#000000" stroke="#000000" points="529.2947,-171.5001 519.2947,-175 529.2946,-178.5001 529.2947,-171.5001"/>
</g>
<!-- FormComponent -->
<g id="node2" class="node">
<title>FormComponent</title>
<polygon fill="#ffffb3" stroke="#000000" points="670.6667,-122 559.3333,-122 559.3333,-86 670.6667,-86 670.6667,-122"/>
<text text-anchor="middle" x="615" y="-99.8" font-family="Times,serif" font-size="14.00" fill="#000000">FormComponent</text>
</g>
<!-- FormComponent&#45;&gt;ItemModuleModule -->
<g id="edge2" class="edge">
<title>FormComponent&#45;&gt;ItemModuleModule</title>
<path fill="none" stroke="#000000" d="M615,-122.0225C615,-139.3734 615,-163 615,-163 615,-163 529.6169,-163 529.6169,-163"/>
<polygon fill="#000000" stroke="#000000" points="529.617,-159.5001 519.6169,-163 529.6169,-166.5001 529.617,-159.5001"/>
</g>
<!-- FilterPipe -->
<g id="node3" class="node">
<title>FilterPipe</title>
<polygon fill="#ffffb3" stroke="#000000" points="541.7177,-122 470.2823,-122 470.2823,-86 541.7177,-86 541.7177,-122"/>
<text text-anchor="middle" x="506" y="-99.8" font-family="Times,serif" font-size="14.00" fill="#000000">FilterPipe</text>
</g>
<!-- FilterPipe&#45;&gt;ItemModuleModule -->
<g id="edge3" class="edge">
<title>FilterPipe&#45;&gt;ItemModuleModule</title>
<path fill="none" stroke="#000000" d="M494.8847,-122.1061C494.8847,-122.1061 494.8847,-140.991 494.8847,-140.991"/>
<polygon fill="#000000" stroke="#000000" points="491.3847,-140.9909 494.8847,-150.991 498.3847,-140.991 491.3847,-140.9909"/>
</g>
<!-- StateDirective -->
<g id="node4" class="node">
<title>StateDirective</title>
<polygon fill="#ffffb3" stroke="#000000" points="452.0758,-122 355.9242,-122 355.9242,-86 452.0758,-86 452.0758,-122"/>
<text text-anchor="middle" x="404" y="-99.8" font-family="Times,serif" font-size="14.00" fill="#000000">StateDirective</text>
</g>
<!-- StateDirective&#45;&gt;ItemModuleModule -->
<g id="edge4" class="edge">
<title>StateDirective&#45;&gt;ItemModuleModule</title>
<path fill="none" stroke="#000000" d="M421.33,-122.1061C421.33,-122.1061 421.33,-140.991 421.33,-140.991"/>
<polygon fill="#000000" stroke="#000000" points="417.83,-140.9909 421.33,-150.991 424.83,-140.991 417.83,-140.9909"/>
</g>
<!-- AdditemComponent -->
<g id="node5" class="node">
<title>AdditemComponent</title>
<polygon fill="#ffffb3" stroke="#000000" points="338.3258,-122 207.6742,-122 207.6742,-86 338.3258,-86 338.3258,-122"/>
<text text-anchor="middle" x="273" y="-99.8" font-family="Times,serif" font-size="14.00" fill="#000000">AdditemComponent</text>
</g>
<!-- AdditemComponent&#45;&gt;ItemModuleModule -->
<g id="edge5" class="edge">
<title>AdditemComponent&#45;&gt;ItemModuleModule</title>
<path fill="none" stroke="#000000" d="M273,-122.0225C273,-139.3734 273,-163 273,-163 273,-163 380.5775,-163 380.5775,-163"/>
<polygon fill="#000000" stroke="#000000" points="380.5775,-166.5001 390.5775,-163 380.5774,-159.5001 380.5775,-166.5001"/>
</g>
<!-- CollectionService -->
<g id="node7" class="node">
<title>CollectionService</title>
<ellipse fill="#fdb462" stroke="#000000" cx="104" cy="-104" rx="80.4519" ry="18"/>
<text text-anchor="middle" x="104" y="-99.8" font-family="Times,serif" font-size="14.00" fill="#000000">CollectionService</text>
</g>
<!-- CollectionService&#45;&gt;ItemModuleModule -->
<g id="edge6" class="edge">
<title>CollectionService&#45;&gt;ItemModuleModule</title>
<path fill="none" stroke="#000000" d="M104,-122.2843C104,-143.3211 104,-175 104,-175 104,-175 380.6212,-175 380.6212,-175"/>
<polygon fill="#000000" stroke="#000000" points="380.6212,-178.5001 390.6212,-175 380.6212,-171.5001 380.6212,-178.5001"/>
</g>
</g>
</svg>
