<?xml version="1.0" encoding="UTF-8" standalone="no"?>
<!DOCTYPE svg PUBLIC "-//W3C//DTD SVG 1.1//EN"
 "http://www.w3.org/Graphics/SVG/1.1/DTD/svg11.dtd">
<!-- Generated by graphviz version 2.40.1 (20161225.0304)
 -->
<!-- Title: dependencies Pages: 1 -->
<svg width="523pt" height="284pt"
 viewBox="0.00 0.00 523.00 284.00" xmlns="http://www.w3.org/2000/svg" xmlns:xlink="http://www.w3.org/1999/xlink">
<g id="graph0" class="graph" transform="scale(1 1) rotate(0) translate(4 280)">
<title>dependencies</title>
<polygon fill="#ffffff" stroke="transparent" points="-4,4 -4,-280 519,-280 519,4 -4,4"/>
<text text-anchor="start" x="236.5091" y="-42.4" font-family="sans-serif" font-weight="bold" font-size="14.00" fill="#000000">Legend</text>
<polygon fill="#ffffb3" stroke="transparent" points="23.5,-10 23.5,-30 43.5,-30 43.5,-10 23.5,-10"/>
<text text-anchor="start" x="47.129" y="-15.4" font-family="sans-serif" font-size="14.00" fill="#000000"> &#160;Declarations</text>
<polygon fill="#8dd3c7" stroke="transparent" points="136.5,-10 136.5,-30 156.5,-30 156.5,-10 136.5,-10"/>
<text text-anchor="start" x="160.2251" y="-15.4" font-family="sans-serif" font-size="14.00" fill="#000000"> &#160;Module</text>
<polygon fill="#80b1d3" stroke="transparent" points="222.5,-10 222.5,-30 242.5,-30 242.5,-10 222.5,-10"/>
<text text-anchor="start" x="246.2812" y="-15.4" font-family="sans-serif" font-size="14.00" fill="#000000"> &#160;Bootstrap</text>
<polygon fill="#fdb462" stroke="transparent" points="319.5,-10 319.5,-30 339.5,-30 339.5,-10 319.5,-10"/>
<text text-anchor="start" x="343.1732" y="-15.4" font-family="sans-serif" font-size="14.00" fill="#000000"> &#160;Providers</text>
<polygon fill="#fb8072" stroke="transparent" points="415.5,-10 415.5,-30 435.5,-30 435.5,-10 415.5,-10"/>
<text text-anchor="start" x="439.2258" y="-15.4" font-family="sans-serif" font-size="14.00" fill="#000000"> &#160;Exports</text>
<g id="clust1" class="cluster">
<title>cluster_SharedModule</title>
<polygon fill="none" stroke="#000000" stroke-dasharray="1,5" points="8,-70 8,-268 507,-268 507,-70 8,-70"/>
</g>
<g id="clust2" class="cluster">
<title>cluster_SharedModule_declarations</title>
<polygon fill="none" stroke="#000000" points="24,-78 24,-130 494,-130 494,-78 24,-78"/>
</g>
<g id="clust8" class="cluster">
<title>cluster_SharedModule_exports</title>
<polygon fill="none" stroke="#000000" points="16,-208 16,-260 499,-260 499,-208 16,-208"/>
</g>
<!-- FilterPipe -->
<g id="node1" class="node">
<title>FilterPipe</title>
<polygon fill="#ffffb3" stroke="#000000" points="485.7177,-122 414.2823,-122 414.2823,-86 485.7177,-86 485.7177,-122"/>
<text text-anchor="middle" x="450" y="-99.8" font-family="Times,serif" font-size="14.00" fill="#000000">FilterPipe</text>
</g>
<!-- SharedModule -->
<g id="node5" class="node">
<title>SharedModule</title>
<polygon fill="#8dd3c7" stroke="#000000" points="276.4231,-187 273.4231,-191 252.4231,-191 249.4231,-187 177.5769,-187 177.5769,-151 276.4231,-151 276.4231,-187"/>
<text text-anchor="middle" x="227" y="-164.8" font-family="Times,serif" font-size="14.00" fill="#000000">SharedModule</text>
</g>
<!-- FilterPipe&#45;&gt;SharedModule -->
<g id="edge1" class="edge">
<title>FilterPipe&#45;&gt;SharedModule</title>
<path fill="none" stroke="#000000" d="M462.6196,-122.2667C462.6196,-140.5552 462.6196,-166 462.6196,-166 462.6196,-166 286.3936,-166 286.3936,-166"/>
<polygon fill="#000000" stroke="#000000" points="286.3936,-162.5001 276.3936,-166 286.3935,-169.5001 286.3936,-162.5001"/>
</g>
<!-- StateDirective -->
<g id="node2" class="node">
<title>StateDirective</title>
<polygon fill="#ffffb3" stroke="#000000" points="396.0758,-122 299.9242,-122 299.9242,-86 396.0758,-86 396.0758,-122"/>
<text text-anchor="middle" x="348" y="-99.8" font-family="Times,serif" font-size="14.00" fill="#000000">StateDirective</text>
</g>
<!-- StateDirective&#45;&gt;SharedModule -->
<g id="edge2" class="edge">
<title>StateDirective&#45;&gt;SharedModule</title>
<path fill="none" stroke="#000000" d="M364.0126,-122.0091C364.0126,-138.0494 364.0126,-159 364.0126,-159 364.0126,-159 286.4647,-159 286.4647,-159"/>
<polygon fill="#000000" stroke="#000000" points="286.4647,-155.5001 276.4647,-159 286.4647,-162.5001 286.4647,-155.5001"/>
</g>
<!-- MenuComponent -->
<g id="node3" class="node">
<title>MenuComponent</title>
<polygon fill="#ffffb3" stroke="#000000" points="281.9916,-122 168.0084,-122 168.0084,-86 281.9916,-86 281.9916,-122"/>
<text text-anchor="middle" x="225" y="-99.8" font-family="Times,serif" font-size="14.00" fill="#000000">MenuComponent</text>
</g>
<!-- MenuComponent&#45;&gt;SharedModule -->
<g id="edge3" class="edge">
<title>MenuComponent&#45;&gt;SharedModule</title>
<path fill="none" stroke="#000000" d="M227,-122.1061C227,-122.1061 227,-140.991 227,-140.991"/>
<polygon fill="#000000" stroke="#000000" points="223.5001,-140.9909 227,-150.991 230.5001,-140.991 223.5001,-140.9909"/>
</g>
<!-- ModalComponent -->
<g id="node4" class="node">
<title>ModalComponent</title>
<polygon fill="#ffffb3" stroke="#000000" points="149.8823,-122 32.1177,-122 32.1177,-86 149.8823,-86 149.8823,-122"/>
<text text-anchor="middle" x="91" y="-99.8" font-family="Times,serif" font-size="14.00" fill="#000000">ModalComponent</text>
</g>
<!-- ModalComponent&#45;&gt;SharedModule -->
<g id="edge4" class="edge">
<title>ModalComponent&#45;&gt;SharedModule</title>
<path fill="none" stroke="#000000" d="M107.8137,-122.0225C107.8137,-139.3734 107.8137,-163 107.8137,-163 107.8137,-163 167.4897,-163 167.4897,-163"/>
<polygon fill="#000000" stroke="#000000" points="167.4897,-166.5001 177.4897,-163 167.4897,-159.5001 167.4897,-166.5001"/>
</g>
<!-- FilterPipe  -->
<g id="node6" class="node">
<title>FilterPipe </title>
<polygon fill="#fb8072" stroke="#000000" points="491.2179,-252 416.7821,-252 416.7821,-216 491.2179,-216 491.2179,-252"/>
<text text-anchor="middle" x="454" y="-229.8" font-family="Times,serif" font-size="14.00" fill="#000000">FilterPipe </text>
</g>
<!-- SharedModule&#45;&gt;FilterPipe  -->
<g id="edge5" class="edge">
<title>SharedModule&#45;&gt;FilterPipe </title>
<path fill="none" stroke="#000000" stroke-dasharray="5,2" d="M276.3161,-173C339.1293,-173 439.6304,-173 439.6304,-173 439.6304,-173 439.6304,-205.698 439.6304,-205.698"/>
<polygon fill="#000000" stroke="#000000" points="436.1305,-205.698 439.6304,-215.698 443.1305,-205.698 436.1305,-205.698"/>
</g>
<!-- StateDirective  -->
<g id="node7" class="node">
<title>StateDirective </title>
<polygon fill="#fb8072" stroke="#000000" points="398.5767,-252 299.4233,-252 299.4233,-216 398.5767,-216 398.5767,-252"/>
<text text-anchor="middle" x="349" y="-229.8" font-family="Times,serif" font-size="14.00" fill="#000000">StateDirective </text>
</g>
<!-- SharedModule&#45;&gt;StateDirective  -->
<g id="edge6" class="edge">
<title>SharedModule&#45;&gt;StateDirective </title>
<path fill="none" stroke="#000000" stroke-dasharray="5,2" d="M276.4194,-180C303.6499,-180 331.9874,-180 331.9874,-180 331.9874,-180 331.9874,-205.7181 331.9874,-205.7181"/>
<polygon fill="#000000" stroke="#000000" points="328.4875,-205.718 331.9874,-215.7181 335.4875,-205.7181 328.4875,-205.718"/>
</g>
<!-- MenuComponent  -->
<g id="node8" class="node">
<title>MenuComponent </title>
<polygon fill="#fb8072" stroke="#000000" points="280.9926,-252 163.0074,-252 163.0074,-216 280.9926,-216 280.9926,-252"/>
<text text-anchor="middle" x="222" y="-229.8" font-family="Times,serif" font-size="14.00" fill="#000000">MenuComponent </text>
</g>
<!-- SharedModule&#45;&gt;MenuComponent  -->
<g id="edge7" class="edge">
<title>SharedModule&#45;&gt;MenuComponent </title>
<path fill="none" stroke="#000000" stroke-dasharray="5,2" d="M227,-187.1061C227,-187.1061 227,-205.991 227,-205.991"/>
<polygon fill="#000000" stroke="#000000" points="223.5001,-205.9909 227,-215.991 230.5001,-205.991 223.5001,-205.9909"/>
</g>
<!-- ModalComponent  -->
<g id="node9" class="node">
<title>ModalComponent </title>
<polygon fill="#fb8072" stroke="#000000" points="145.8828,-252 24.1172,-252 24.1172,-216 145.8828,-216 145.8828,-252"/>
<text text-anchor="middle" x="85" y="-229.8" font-family="Times,serif" font-size="14.00" fill="#000000">ModalComponent </text>
</g>
<!-- SharedModule&#45;&gt;ModalComponent  -->
<g id="edge8" class="edge">
<title>SharedModule&#45;&gt;ModalComponent </title>
<path fill="none" stroke="#000000" stroke-dasharray="5,2" d="M177.735,-175C131.6734,-175 69.9363,-175 69.9363,-175 69.9363,-175 69.9363,-205.9775 69.9363,-205.9775"/>
<polygon fill="#000000" stroke="#000000" points="66.4364,-205.9774 69.9363,-215.9775 73.4364,-205.9775 66.4364,-205.9774"/>
</g>
</g>
</svg>
