<?xml version="1.0" encoding="UTF-8" standalone="no"?>
<!DOCTYPE svg PUBLIC "-//W3C//DTD SVG 1.1//EN"
 "http://www.w3.org/Graphics/SVG/1.1/DTD/svg11.dtd">
<!-- Generated by graphviz version 2.40.1 (20161225.0304)
 -->
<!-- Title: dependencies Pages: 1 -->
<svg width="869pt" height="211pt"
 viewBox="0.00 0.00 869.00 211.00" xmlns="http://www.w3.org/2000/svg" xmlns:xlink="http://www.w3.org/1999/xlink">
<g id="graph0" class="graph" transform="scale(1 1) rotate(0) translate(4 207)">
<title>dependencies</title>
<polygon fill="#ffffff" stroke="transparent" points="-4,4 -4,-207 865,-207 865,4 -4,4"/>
<text text-anchor="start" x="409.5091" y="-42.4" font-family="sans-serif" font-weight="bold" font-size="14.00" fill="#000000">Legend</text>
<polygon fill="#ffffb3" stroke="transparent" points="196.5,-10 196.5,-30 216.5,-30 216.5,-10 196.5,-10"/>
<text text-anchor="start" x="220.129" y="-15.4" font-family="sans-serif" font-size="14.00" fill="#000000"> &#160;Declarations</text>
<polygon fill="#8dd3c7" stroke="transparent" points="309.5,-10 309.5,-30 329.5,-30 329.5,-10 309.5,-10"/>
<text text-anchor="start" x="333.2251" y="-15.4" font-family="sans-serif" font-size="14.00" fill="#000000"> &#160;Module</text>
<polygon fill="#80b1d3" stroke="transparent" points="395.5,-10 395.5,-30 415.5,-30 415.5,-10 395.5,-10"/>
<text text-anchor="start" x="419.2812" y="-15.4" font-family="sans-serif" font-size="14.00" fill="#000000"> &#160;Bootstrap</text>
<polygon fill="#fdb462" stroke="transparent" points="492.5,-10 492.5,-30 512.5,-30 512.5,-10 492.5,-10"/>
<text text-anchor="start" x="516.1732" y="-15.4" font-family="sans-serif" font-size="14.00" fill="#000000"> &#160;Providers</text>
<polygon fill="#fb8072" stroke="transparent" points="588.5,-10 588.5,-30 608.5,-30 608.5,-10 588.5,-10"/>
<text text-anchor="start" x="612.2258" y="-15.4" font-family="sans-serif" font-size="14.00" fill="#000000"> &#160;Exports</text>
<g id="clust1" class="cluster">
<title>cluster_ItemsModule</title>
<polygon fill="none" stroke="#000000" stroke-dasharray="1,5" points="8,-70 8,-195 853,-195 853,-70 8,-70"/>
</g>
<g id="clust2" class="cluster">
<title>cluster_ItemsModule_declarations</title>
<polygon fill="none" stroke="#000000" points="292,-78 292,-130 845,-130 845,-78 292,-78"/>
</g>
<g id="clust7" class="cluster">
<title>cluster_ItemsModule_imports</title>
<polygon fill="none" stroke="#000000" points="16,-78 16,-130 284,-130 284,-78 16,-78"/>
</g>
<!-- ListItemsComponent -->
<g id="node1" class="node">
<title>ListItemsComponent</title>
<polygon fill="#ffffb3" stroke="#000000" points="837.212,-122 702.788,-122 702.788,-86 837.212,-86 837.212,-122"/>
<text text-anchor="middle" x="770" y="-99.8" font-family="Times,serif" font-size="14.00" fill="#000000">ListItemsComponent</text>
</g>
<!-- ItemsModule -->
<g id="node5" class="node">
<title>ItemsModule</title>
<polygon fill="#8dd3c7" stroke="#000000" points="466.1515,-187 463.1515,-191 442.1515,-191 439.1515,-187 375.8485,-187 375.8485,-151 466.1515,-151 466.1515,-187"/>
<text text-anchor="middle" x="421" y="-164.8" font-family="Times,serif" font-size="14.00" fill="#000000">ItemsModule</text>
</g>
<!-- ListItemsComponent&#45;&gt;ItemsModule -->
<g id="edge1" class="edge">
<title>ListItemsComponent&#45;&gt;ItemsModule</title>
<path fill="none" stroke="#000000" d="M770,-122.2843C770,-143.3211 770,-175 770,-175 770,-175 476.2679,-175 476.2679,-175"/>
<polygon fill="#000000" stroke="#000000" points="476.2679,-171.5001 466.2679,-175 476.2678,-178.5001 476.2679,-171.5001"/>
</g>
<!-- FormComponent -->
<g id="node2" class="node">
<title>FormComponent</title>
<polygon fill="#ffffb3" stroke="#000000" points="684.6667,-122 573.3333,-122 573.3333,-86 684.6667,-86 684.6667,-122"/>
<text text-anchor="middle" x="629" y="-99.8" font-family="Times,serif" font-size="14.00" fill="#000000">FormComponent</text>
</g>
<!-- FormComponent&#45;&gt;ItemsModule -->
<g id="edge2" class="edge">
<title>FormComponent&#45;&gt;ItemsModule</title>
<path fill="none" stroke="#000000" d="M629,-122.0225C629,-139.3734 629,-163 629,-163 629,-163 476.3895,-163 476.3895,-163"/>
<polygon fill="#000000" stroke="#000000" points="476.3895,-159.5001 466.3895,-163 476.3894,-166.5001 476.3895,-159.5001"/>
</g>
<!-- AdditemComponent -->
<g id="node3" class="node">
<title>AdditemComponent</title>
<polygon fill="#ffffb3" stroke="#000000" points="555.3258,-122 424.6742,-122 424.6742,-86 555.3258,-86 555.3258,-122"/>
<text text-anchor="middle" x="490" y="-99.8" font-family="Times,serif" font-size="14.00" fill="#000000">AdditemComponent</text>
</g>
<!-- AdditemComponent&#45;&gt;ItemsModule -->
<g id="edge3" class="edge">
<title>AdditemComponent&#45;&gt;ItemsModule</title>
<path fill="none" stroke="#000000" d="M445.5814,-122.1061C445.5814,-122.1061 445.5814,-140.991 445.5814,-140.991"/>
<polygon fill="#000000" stroke="#000000" points="442.0814,-140.9909 445.5814,-150.991 449.0814,-140.991 442.0814,-140.9909"/>
</g>
<!-- ItemComponent -->
<g id="node4" class="node">
<title>ItemComponent</title>
<polygon fill="#ffffb3" stroke="#000000" points="406.4888,-122 299.5112,-122 299.5112,-86 406.4888,-86 406.4888,-122"/>
<text text-anchor="middle" x="353" y="-99.8" font-family="Times,serif" font-size="14.00" fill="#000000">ItemComponent</text>
</g>
<!-- ItemComponent&#45;&gt;ItemsModule -->
<g id="edge4" class="edge">
<title>ItemComponent&#45;&gt;ItemsModule</title>
<path fill="none" stroke="#000000" d="M391.0845,-122.1061C391.0845,-122.1061 391.0845,-140.991 391.0845,-140.991"/>
<polygon fill="#000000" stroke="#000000" points="387.5846,-140.9909 391.0845,-150.991 394.5846,-140.991 387.5846,-140.9909"/>
</g>
<!-- ItemsRoutingModule -->
<g id="node6" class="node">
<title>ItemsRoutingModule</title>
<polygon fill="#8dd3c7" stroke="#000000" points="275.7688,-122 272.7688,-126 251.7688,-126 248.7688,-122 140.2312,-122 140.2312,-86 275.7688,-86 275.7688,-122"/>
<text text-anchor="middle" x="208" y="-99.8" font-family="Times,serif" font-size="14.00" fill="#000000">ItemsRoutingModule</text>
</g>
<!-- ItemsRoutingModule&#45;&gt;ItemsModule -->
<g id="edge5" class="edge">
<title>ItemsRoutingModule&#45;&gt;ItemsModule</title>
<path fill="none" stroke="#000000" d="M208,-122.0225C208,-139.3734 208,-163 208,-163 208,-163 365.8282,-163 365.8282,-163"/>
<polygon fill="#000000" stroke="#000000" points="365.8282,-166.5001 375.8282,-163 365.8281,-159.5001 365.8282,-166.5001"/>
</g>
<!-- SharedModule -->
<g id="node7" class="node">
<title>SharedModule</title>
<polygon fill="#8dd3c7" stroke="#000000" points="122.4231,-122 119.4231,-126 98.4231,-126 95.4231,-122 23.5769,-122 23.5769,-86 122.4231,-86 122.4231,-122"/>
<text text-anchor="middle" x="73" y="-99.8" font-family="Times,serif" font-size="14.00" fill="#000000">SharedModule</text>
</g>
<!-- SharedModule&#45;&gt;ItemsModule -->
<g id="edge6" class="edge">
<title>SharedModule&#45;&gt;ItemsModule</title>
<path fill="none" stroke="#000000" d="M73,-122.2843C73,-143.3211 73,-175 73,-175 73,-175 365.5051,-175 365.5051,-175"/>
<polygon fill="#000000" stroke="#000000" points="365.5051,-178.5001 375.5051,-175 365.505,-171.5001 365.5051,-178.5001"/>
</g>
</g>
</svg>
